<svg xmlns="http://www.w3.org/2000/svg" width="1080.903" height="925" viewBox="0 0 1080.903 925">
  <g id="グループ_20781" data-name="グループ 20781" transform="translate(267.634 -455)">
    <path id="パス_1203" data-name="パス 1203" d="M2541.146-910.981v489.348q-.85-.417-1.771-.809A33.916,33.916,0,0,0,2525.542-425c-19.333,0-19.333,10.676-38.667,10.676S2467.541-425,2448.2-425s-19.334,10.676-38.667,10.676S2390.195-425,2370.861-425s-19.345,10.676-38.679,10.676S2312.849-425,2293.515-425s-19.345,10.676-38.679,10.676S2235.5-425,2216.169-425s-19.334,10.676-38.667,10.676S2158.156-425,2138.823-425s-19.333,10.676-38.667,10.676S2080.822-425,2061.488-425s-19.333,10.676-38.667,10.676S2003.476-425,1984.154-425s-19.333,10.676-38.667,10.676S1926.154-425,1906.82-425s-19.333,10.676-38.667,10.676S1848.819-425,1829.486-425s-19.346,10.676-38.679,10.676S1771.473-425,1752.14-425s-19.334,10.676-38.668,10.676S1694.139-425,1674.805-425s-19.346,10.676-38.679,10.676S1616.793-425,1597.459-425s-19.333,10.676-38.667,10.676S1539.458-425,1520.125-425s-19.334,10.676-38.667,10.676a33.985,33.985,0,0,1-13.81-2.546c-.614-.262-1.192-.531-1.771-.8V-906.9c.567.277,1.157.54,1.771.793a34.357,34.357,0,0,0,13.822,2.459c19.333,0,19.333-10.668,38.679-10.668s19.333,10.668,38.667,10.668,19.333-10.668,38.678-10.668,19.334,10.668,38.667,10.668,19.334-10.668,38.667-10.668,19.345,10.668,38.679,10.668,19.333-10.668,38.667-10.668,19.345,10.668,38.679,10.668,19.334-10.668,38.667-10.668,19.333,10.668,38.667,10.668,19.333-10.668,38.667-10.668,19.345,10.668,38.678,10.668,19.323-10.668,38.667-10.668,19.334,10.668,38.667,10.668,19.333-10.668,38.666-10.668,19.334,10.668,38.667,10.668,19.334-10.668,38.668-10.668,19.333,10.668,38.667,10.668,19.333-10.668,38.667-10.668,19.333,10.668,38.667,10.668,19.346-10.668,38.679-10.668,19.334,10.668,38.667,10.668,19.333-10.668,38.667-10.668,19.333,10.668,38.667,10.668,19.333-10.668,38.667-10.668,19.346,10.668,38.678,10.668,19.334-10.668,38.668-10.668a33.985,33.985,0,0,1,13.809,2.546C2539.989-911.52,2540.567-911.25,2541.146-910.981Z" transform="translate(-1727.877 1369.32)" fill="#f5f0ea"/>
    <path id="パス_1259" data-name="パス 1259" d="M2540.877-911.3V-468.93q-.85-.377-1.771-.731a37.06,37.06,0,0,0-13.83-2.309c-19.329,0-19.329,9.651-38.657,9.651s-19.329-9.651-38.669-9.651-19.329,9.651-38.658,9.651-19.329-9.651-38.658-9.651-19.34,9.651-38.669,9.651-19.329-9.651-38.658-9.651-19.34,9.651-38.669,9.651-19.328-9.651-38.657-9.651-19.329,9.651-38.658,9.651-19.34-9.651-38.669-9.651-19.329,9.651-38.658,9.651-19.329-9.651-38.657-9.651-19.329,9.651-38.657,9.651-19.341-9.651-38.658-9.651-19.329,9.651-38.657,9.651-19.329-9.651-38.658-9.651-19.329,9.651-38.658,9.651-19.328-9.651-38.657-9.651-19.341,9.651-38.67,9.651-19.329-9.651-38.657-9.651-19.329,9.651-38.658,9.651-19.328-9.651-38.657-9.651-19.341,9.651-38.669,9.651-19.329-9.651-38.658-9.651-19.328,9.651-38.657,9.651-19.329-9.651-38.657-9.651-19.329,9.651-38.657,9.651a37.136,37.136,0,0,1-13.806-2.3c-.614-.237-1.192-.48-1.77-.724V-907.616c.567.251,1.156.488,1.77.717a37.564,37.564,0,0,0,13.818,2.223c19.328,0,19.328-9.644,38.669-9.644s19.329,9.644,38.658,9.644,19.329-9.644,38.669-9.644,19.329,9.644,38.658,9.644,19.329-9.644,38.658-9.644,19.34,9.644,38.669,9.644,19.328-9.644,38.658-9.644,19.341,9.644,38.669,9.644,19.329-9.644,38.658-9.644,19.328,9.644,38.657,9.644,19.329-9.644,38.658-9.644,19.34,9.644,38.669,9.644,19.318-9.644,38.658-9.644,19.329,9.644,38.658,9.644,19.329-9.644,38.657-9.644,19.329,9.644,38.658,9.644,19.329-9.644,38.658-9.644,19.328,9.644,38.657,9.644,19.329-9.644,38.658-9.644,19.329,9.644,38.657,9.644,19.341-9.644,38.669-9.644,19.329,9.644,38.658,9.644,19.329-9.644,38.657-9.644,19.329,9.644,38.658,9.644,19.328-9.644,38.658-9.644,19.341,9.644,38.668,9.644,19.33-9.644,38.658-9.644a37.138,37.138,0,0,1,13.805,2.3C2539.721-911.789,2540.3-911.545,2540.877-911.3Z" transform="translate(-1733.511 1842.319)" fill="#f5f0ea"/>
  </g>
</svg>
