<svg xmlns="http://www.w3.org/2000/svg" width="2754.5" height="2280" viewBox="0 0 2754.5 2280">
  <g id="グループ_21078" data-name="グループ 21078" transform="translate(3405 1061)">
    <path id="パス_22441" data-name="パス 22441" d="M3131.483-909.071v769.254q-1.317-.655-2.744-1.272c-5.392-2.319-11.9-4.015-21.427-4.015-29.948,0-29.948,16.783-59.9,16.783S3017.469-145.1,2987.5-145.1c-29.948,0-29.948,16.783-59.9,16.783s-29.948-16.783-59.9-16.783c-29.966,0-29.966,16.783-59.914,16.783s-29.948-16.783-59.9-16.783c-29.966,0-29.966,16.783-59.915,16.783s-29.947-16.783-59.9-16.783-29.949,16.783-59.9,16.783c-29.966,0-29.966-16.783-59.914-16.783s-29.948,16.783-59.9,16.783-29.948-16.783-59.9-16.783-29.948,16.783-59.9,16.783-29.967-16.783-59.9-16.783c-29.948,0-29.948,16.783-59.9,16.783s-29.948-16.783-59.9-16.783-29.948,16.783-59.9,16.783-29.948-16.783-59.9-16.783c-29.967,0-29.967,16.783-59.914,16.783s-29.948-16.783-59.9-16.783-29.948,16.783-59.9,16.783-29.948-16.783-59.9-16.783c-29.966,0-29.966,16.783-59.914,16.783s-29.948-16.783-59.9-16.783-29.948,16.783-59.9,16.783-29.948-16.783-59.9-16.783-29.949,16.783-59.9,16.783c-9.508,0-16-1.7-21.391-4-.951-.411-1.847-.835-2.743-1.259v-769.08c.878.436,1.792.848,2.743,1.247,5.3,2.245,11.756,3.865,21.41,3.865,29.948,0,29.948-16.771,59.914-16.771,29.948,0,29.948,16.771,59.9,16.771s29.948-16.771,59.914-16.771c29.948,0,29.948,16.771,59.9,16.771s29.948-16.771,59.9-16.771c29.967,0,29.967,16.771,59.914,16.771s29.948-16.771,59.9-16.771,29.966,16.771,59.914,16.771,29.948-16.771,59.9-16.771,29.948,16.771,59.9,16.771,29.948-16.771,59.9-16.771,29.966,16.771,59.914,16.771c29.93,0,29.93-16.771,59.9-16.771,29.948,0,29.948,16.771,59.9,16.771s29.948-16.771,59.9-16.771,29.948,16.771,59.9,16.771,29.948-16.771,59.9-16.771,29.947,16.771,59.9,16.771,29.948-16.771,59.9-16.771,29.948,16.771,59.9,16.771c29.966,0,29.966-16.771,59.914-16.771s29.949,16.771,59.9,16.771,29.948-16.771,59.9-16.771,29.948,16.771,59.9,16.771,29.947-16.771,59.9-16.771c29.967,0,29.967,16.771,59.913,16.771s29.949-16.771,59.9-16.771c9.507,0,16,1.7,21.39,4C3129.691-909.919,3130.587-909.495,3131.483-909.071Z" transform="translate(-4870.877 -146.68)" fill="#f5f0ea"/>
    <path id="パス_22444" data-name="パス 22444" d="M3131.483-909.071v769.254q-1.317-.655-2.744-1.272c-5.392-2.319-11.9-4.015-21.427-4.015-29.948,0-29.948,16.783-59.9,16.783S3017.469-145.1,2987.5-145.1c-29.948,0-29.948,16.783-59.9,16.783s-29.948-16.783-59.9-16.783c-29.966,0-29.966,16.783-59.914,16.783s-29.948-16.783-59.9-16.783c-29.966,0-29.966,16.783-59.915,16.783s-29.947-16.783-59.9-16.783-29.949,16.783-59.9,16.783c-29.966,0-29.966-16.783-59.914-16.783s-29.948,16.783-59.9,16.783-29.948-16.783-59.9-16.783-29.948,16.783-59.9,16.783-29.967-16.783-59.9-16.783c-29.948,0-29.948,16.783-59.9,16.783s-29.948-16.783-59.9-16.783-29.948,16.783-59.9,16.783-29.948-16.783-59.9-16.783c-29.967,0-29.967,16.783-59.914,16.783s-29.948-16.783-59.9-16.783-29.948,16.783-59.9,16.783-29.948-16.783-59.9-16.783c-29.966,0-29.966,16.783-59.914,16.783s-29.948-16.783-59.9-16.783-29.948,16.783-59.9,16.783-29.948-16.783-59.9-16.783-29.949,16.783-59.9,16.783c-9.508,0-16-1.7-21.391-4-.951-.411-1.847-.835-2.743-1.259v-769.08c.878.436,1.792.848,2.743,1.247,5.3,2.245,11.756,3.865,21.41,3.865,29.948,0,29.948-16.771,59.914-16.771,29.948,0,29.948,16.771,59.9,16.771s29.948-16.771,59.914-16.771c29.948,0,29.948,16.771,59.9,16.771s29.948-16.771,59.9-16.771c29.967,0,29.967,16.771,59.914,16.771s29.948-16.771,59.9-16.771,29.966,16.771,59.914,16.771,29.948-16.771,59.9-16.771,29.948,16.771,59.9,16.771,29.948-16.771,59.9-16.771,29.966,16.771,59.914,16.771c29.93,0,29.93-16.771,59.9-16.771,29.948,0,29.948,16.771,59.9,16.771s29.948-16.771,59.9-16.771,29.948,16.771,59.9,16.771,29.948-16.771,59.9-16.771,29.947,16.771,59.9,16.771,29.948-16.771,59.9-16.771,29.948,16.771,59.9,16.771c29.966,0,29.966-16.771,59.914-16.771s29.949,16.771,59.9,16.771,29.948-16.771,59.9-16.771,29.948,16.771,59.9,16.771,29.947-16.771,59.9-16.771c29.967,0,29.967,16.771,59.913,16.771s29.949-16.771,59.9-16.771c9.507,0,16,1.7,21.39,4C3129.691-909.919,3130.587-909.495,3131.483-909.071Z" transform="translate(-3781.983 -146.68)" fill="#f5f0ea"/>
    <path id="パス_22442" data-name="パス 22442" d="M3131.483-909.071v769.254q-1.317-.655-2.744-1.272c-5.392-2.319-11.9-4.015-21.427-4.015-29.948,0-29.948,16.783-59.9,16.783S3017.469-145.1,2987.5-145.1c-29.948,0-29.948,16.783-59.9,16.783s-29.948-16.783-59.9-16.783c-29.966,0-29.966,16.783-59.914,16.783s-29.948-16.783-59.9-16.783c-29.966,0-29.966,16.783-59.915,16.783s-29.947-16.783-59.9-16.783-29.949,16.783-59.9,16.783c-29.966,0-29.966-16.783-59.914-16.783s-29.948,16.783-59.9,16.783-29.948-16.783-59.9-16.783-29.948,16.783-59.9,16.783-29.967-16.783-59.9-16.783c-29.948,0-29.948,16.783-59.9,16.783s-29.948-16.783-59.9-16.783-29.948,16.783-59.9,16.783-29.948-16.783-59.9-16.783c-29.967,0-29.967,16.783-59.914,16.783s-29.948-16.783-59.9-16.783-29.948,16.783-59.9,16.783-29.948-16.783-59.9-16.783c-29.966,0-29.966,16.783-59.914,16.783s-29.948-16.783-59.9-16.783-29.948,16.783-59.9,16.783-29.948-16.783-59.9-16.783-29.949,16.783-59.9,16.783c-9.508,0-16-1.7-21.391-4-.951-.411-1.847-.835-2.743-1.259v-769.08c.878.436,1.792.848,2.743,1.247,5.3,2.245,11.756,3.865,21.41,3.865,29.948,0,29.948-16.771,59.914-16.771,29.948,0,29.948,16.771,59.9,16.771s29.948-16.771,59.914-16.771c29.948,0,29.948,16.771,59.9,16.771s29.948-16.771,59.9-16.771c29.967,0,29.967,16.771,59.914,16.771s29.948-16.771,59.9-16.771,29.966,16.771,59.914,16.771,29.948-16.771,59.9-16.771,29.948,16.771,59.9,16.771,29.948-16.771,59.9-16.771,29.966,16.771,59.914,16.771c29.93,0,29.93-16.771,59.9-16.771,29.948,0,29.948,16.771,59.9,16.771s29.948-16.771,59.9-16.771,29.948,16.771,59.9,16.771,29.948-16.771,59.9-16.771,29.947,16.771,59.9,16.771,29.948-16.771,59.9-16.771,29.948,16.771,59.9,16.771c29.966,0,29.966-16.771,59.914-16.771s29.949,16.771,59.9,16.771,29.948-16.771,59.9-16.771,29.948,16.771,59.9,16.771,29.947-16.771,59.9-16.771c29.967,0,29.967,16.771,59.913,16.771s29.949-16.771,59.9-16.771c9.507,0,16,1.7,21.39,4C3129.691-909.919,3130.587-909.495,3131.483-909.071Z" transform="translate(-4870.877 607.32)" fill="#f5f0ea"/>
    <path id="パス_22445" data-name="パス 22445" d="M3131.483-909.071v769.254q-1.317-.655-2.744-1.272c-5.392-2.319-11.9-4.015-21.427-4.015-29.948,0-29.948,16.783-59.9,16.783S3017.469-145.1,2987.5-145.1c-29.948,0-29.948,16.783-59.9,16.783s-29.948-16.783-59.9-16.783c-29.966,0-29.966,16.783-59.914,16.783s-29.948-16.783-59.9-16.783c-29.966,0-29.966,16.783-59.915,16.783s-29.947-16.783-59.9-16.783-29.949,16.783-59.9,16.783c-29.966,0-29.966-16.783-59.914-16.783s-29.948,16.783-59.9,16.783-29.948-16.783-59.9-16.783-29.948,16.783-59.9,16.783-29.967-16.783-59.9-16.783c-29.948,0-29.948,16.783-59.9,16.783s-29.948-16.783-59.9-16.783-29.948,16.783-59.9,16.783-29.948-16.783-59.9-16.783c-29.967,0-29.967,16.783-59.914,16.783s-29.948-16.783-59.9-16.783-29.948,16.783-59.9,16.783-29.948-16.783-59.9-16.783c-29.966,0-29.966,16.783-59.914,16.783s-29.948-16.783-59.9-16.783-29.948,16.783-59.9,16.783-29.948-16.783-59.9-16.783-29.949,16.783-59.9,16.783c-9.508,0-16-1.7-21.391-4-.951-.411-1.847-.835-2.743-1.259v-769.08c.878.436,1.792.848,2.743,1.247,5.3,2.245,11.756,3.865,21.41,3.865,29.948,0,29.948-16.771,59.914-16.771,29.948,0,29.948,16.771,59.9,16.771s29.948-16.771,59.914-16.771c29.948,0,29.948,16.771,59.9,16.771s29.948-16.771,59.9-16.771c29.967,0,29.967,16.771,59.914,16.771s29.948-16.771,59.9-16.771,29.966,16.771,59.914,16.771,29.948-16.771,59.9-16.771,29.948,16.771,59.9,16.771,29.948-16.771,59.9-16.771,29.966,16.771,59.914,16.771c29.93,0,29.93-16.771,59.9-16.771,29.948,0,29.948,16.771,59.9,16.771s29.948-16.771,59.9-16.771,29.948,16.771,59.9,16.771,29.948-16.771,59.9-16.771,29.947,16.771,59.9,16.771,29.948-16.771,59.9-16.771,29.948,16.771,59.9,16.771c29.966,0,29.966-16.771,59.914-16.771s29.949,16.771,59.9,16.771,29.948-16.771,59.9-16.771,29.948,16.771,59.9,16.771,29.947-16.771,59.9-16.771c29.967,0,29.967,16.771,59.913,16.771s29.949-16.771,59.9-16.771c9.507,0,16,1.7,21.39,4C3129.691-909.919,3130.587-909.495,3131.483-909.071Z" transform="translate(-3781.983 607.32)" fill="#f5f0ea"/>
    <path id="パス_22443" data-name="パス 22443" d="M3131.483-909.071v769.254q-1.317-.655-2.744-1.272c-5.392-2.319-11.9-4.015-21.427-4.015-29.948,0-29.948,16.783-59.9,16.783S3017.469-145.1,2987.5-145.1c-29.948,0-29.948,16.783-59.9,16.783s-29.948-16.783-59.9-16.783c-29.966,0-29.966,16.783-59.914,16.783s-29.948-16.783-59.9-16.783c-29.966,0-29.966,16.783-59.915,16.783s-29.947-16.783-59.9-16.783-29.949,16.783-59.9,16.783c-29.966,0-29.966-16.783-59.914-16.783s-29.948,16.783-59.9,16.783-29.948-16.783-59.9-16.783-29.948,16.783-59.9,16.783-29.967-16.783-59.9-16.783c-29.948,0-29.948,16.783-59.9,16.783s-29.948-16.783-59.9-16.783-29.948,16.783-59.9,16.783-29.948-16.783-59.9-16.783c-29.967,0-29.967,16.783-59.914,16.783s-29.948-16.783-59.9-16.783-29.948,16.783-59.9,16.783-29.948-16.783-59.9-16.783c-29.966,0-29.966,16.783-59.914,16.783s-29.948-16.783-59.9-16.783-29.948,16.783-59.9,16.783-29.948-16.783-59.9-16.783-29.949,16.783-59.9,16.783c-9.508,0-16-1.7-21.391-4-.951-.411-1.847-.835-2.743-1.259v-769.08c.878.436,1.792.848,2.743,1.247,5.3,2.245,11.756,3.865,21.41,3.865,29.948,0,29.948-16.771,59.914-16.771,29.948,0,29.948,16.771,59.9,16.771s29.948-16.771,59.914-16.771c29.948,0,29.948,16.771,59.9,16.771s29.948-16.771,59.9-16.771c29.967,0,29.967,16.771,59.914,16.771s29.948-16.771,59.9-16.771,29.966,16.771,59.914,16.771,29.948-16.771,59.9-16.771,29.948,16.771,59.9,16.771,29.948-16.771,59.9-16.771,29.966,16.771,59.914,16.771c29.93,0,29.93-16.771,59.9-16.771,29.948,0,29.948,16.771,59.9,16.771s29.948-16.771,59.9-16.771,29.948,16.771,59.9,16.771,29.948-16.771,59.9-16.771,29.947,16.771,59.9,16.771,29.948-16.771,59.9-16.771,29.948,16.771,59.9,16.771c29.966,0,29.966-16.771,59.914-16.771s29.949,16.771,59.9,16.771,29.948-16.771,59.9-16.771,29.948,16.771,59.9,16.771,29.947-16.771,59.9-16.771c29.967,0,29.967,16.771,59.913,16.771s29.949-16.771,59.9-16.771c9.507,0,16,1.7,21.39,4C3129.691-909.919,3130.587-909.495,3131.483-909.071Z" transform="translate(-4870.877 1347.32)" fill="#f5f0ea"/>
    <path id="パス_22446" data-name="パス 22446" d="M3131.483-909.071v769.254q-1.317-.655-2.744-1.272c-5.392-2.319-11.9-4.015-21.427-4.015-29.948,0-29.948,16.783-59.9,16.783S3017.469-145.1,2987.5-145.1c-29.948,0-29.948,16.783-59.9,16.783s-29.948-16.783-59.9-16.783c-29.966,0-29.966,16.783-59.914,16.783s-29.948-16.783-59.9-16.783c-29.966,0-29.966,16.783-59.915,16.783s-29.947-16.783-59.9-16.783-29.949,16.783-59.9,16.783c-29.966,0-29.966-16.783-59.914-16.783s-29.948,16.783-59.9,16.783-29.948-16.783-59.9-16.783-29.948,16.783-59.9,16.783-29.967-16.783-59.9-16.783c-29.948,0-29.948,16.783-59.9,16.783s-29.948-16.783-59.9-16.783-29.948,16.783-59.9,16.783-29.948-16.783-59.9-16.783c-29.967,0-29.967,16.783-59.914,16.783s-29.948-16.783-59.9-16.783-29.948,16.783-59.9,16.783-29.948-16.783-59.9-16.783c-29.966,0-29.966,16.783-59.914,16.783s-29.948-16.783-59.9-16.783-29.948,16.783-59.9,16.783-29.948-16.783-59.9-16.783-29.949,16.783-59.9,16.783c-9.508,0-16-1.7-21.391-4-.951-.411-1.847-.835-2.743-1.259v-769.08c.878.436,1.792.848,2.743,1.247,5.3,2.245,11.756,3.865,21.41,3.865,29.948,0,29.948-16.771,59.914-16.771,29.948,0,29.948,16.771,59.9,16.771s29.948-16.771,59.914-16.771c29.948,0,29.948,16.771,59.9,16.771s29.948-16.771,59.9-16.771c29.967,0,29.967,16.771,59.914,16.771s29.948-16.771,59.9-16.771,29.966,16.771,59.914,16.771,29.948-16.771,59.9-16.771,29.948,16.771,59.9,16.771,29.948-16.771,59.9-16.771,29.966,16.771,59.914,16.771c29.93,0,29.93-16.771,59.9-16.771,29.948,0,29.948,16.771,59.9,16.771s29.948-16.771,59.9-16.771,29.948,16.771,59.9,16.771,29.948-16.771,59.9-16.771,29.947,16.771,59.9,16.771,29.948-16.771,59.9-16.771,29.948,16.771,59.9,16.771c29.966,0,29.966-16.771,59.914-16.771s29.949,16.771,59.9,16.771,29.948-16.771,59.9-16.771,29.948,16.771,59.9,16.771,29.947-16.771,59.9-16.771c29.967,0,29.967,16.771,59.913,16.771s29.949-16.771,59.9-16.771c9.507,0,16,1.7,21.39,4C3129.691-909.919,3130.587-909.495,3131.483-909.071Z" transform="translate(-3781.983 1347.32)" fill="#f5f0ea"/>
  </g>
</svg>
